# xmcd CD database file
#
# Track frame offsets:
#	150
#	12724
#	24236
#	35734
#	48299
#	58147
#	70573
#	86374
#	106602
#	121687
#	138809
#
# Disc length: 2076 seconds
#
# Revision: 1
# Processed by: cddbd v1.5.2PL0 Copyright (c) Steve Scherf et al.
# Submitted via: CDex 1.51
#
DISCID=81081a0b
DTITLE=Albert King - Born Under A Bad Sign
DYEAR=1967
DGENRE=Blues
TTITLE0=Born Under A Bad Sign
TTITLE1=Crosscut Saw
TTITLE2=Kansas City
TTITLE3=Oh, Pretty Woman
TTITLE4=Down Don't Bother Me
TTITLE5=The Hunter
TTITLE6=I Almost Lost My Mind
TTITLE7=Personal Manager
TTITLE8=Laundromat Blues
TTITLE9=As The Years Go Passing By
TTITLE10=The Very Thought Of You
EXTD=YEAR: 1967
EXTT0=
EXTT1=
EXTT2=
EXTT3=
EXTT4=
EXTT5=
EXTT6=
EXTT7=
EXTT8=
EXTT9=
EXTT10=
PLAYORDER=
